<svg xmlns="http://www.w3.org/2000/svg" viewBox="0 0 736.52 592.07"><defs><style>.cls-1{isolation:isolate;}.cls-2{fill:#959392;opacity:0.26;mix-blend-mode:multiply;}.cls-3{fill:#4cbac1;}.cls-4{fill:#f3f3f3;}.cls-5{fill:#fff;}.cls-6{fill:#d2010d;}.cls-7{fill:none;stroke:#4cbac1;stroke-linecap:round;stroke-miterlimit:10;stroke-width:2px;}</style></defs><title>Cabezote-Img</title><g class="cls-1"><g id="Capa_1" data-name="Capa 1"><path class="cls-2" d="M669.5,465v12.89c0,15.19-45.67,27.62-101.49,27.62H180.07c-55.82,0-101.49-12.43-101.49-27.62V465c-31.07-4.54-52.32-13.47-52.32-23.69h0c0-1.76,2.18-14.4,25.37-12.55H701.5c23.07-.16,20.32,10.79,20.32,12.55h0C721.82,451.56,700.57,460.49,669.5,465Z"/><path class="cls-3" d="M655.79,330.84V283.41c0-55.91-42.9-101.65-95.33-101.65H196.08c-52.43,0-95.33,45.74-95.33,101.65v47.43C71.57,347.55,51.61,380.43,51.61,418h0a105,105,0,0,0,1.72,18.9H703.2a104,104,0,0,0,1.73-18.9h0C704.93,380.43,685,347.55,655.79,330.84Z"/><path class="cls-4" d="M623.63,277a70.29,70.29,0,1,0-114.85,54.32,41.47,41.47,0,0,1,15.49,32V364a9.78,9.78,0,0,0,9.75,9.75h38.66a9.78,9.78,0,0,0,9.75-9.75v-.6a40.17,40.17,0,0,1,14.78-31.45A70.1,70.1,0,0,0,623.63,277Z"/><path class="cls-5" d="M526.86,377.65H577a3.37,3.37,0,0,1,3.37,3.37v5.11a0,0,0,0,1,0,0H530.23a3.37,3.37,0,0,1-3.37-3.37v-5.11a0,0,0,0,1,0,0Z"/><path class="cls-5" d="M530.07,390.56H574a3.16,3.16,0,0,1,3.16,3.16V399a0,0,0,0,1,0,0H533.23a3.16,3.16,0,0,1-3.16-3.16v-5.32A0,0,0,0,1,530.07,390.56Z"/><path class="cls-5" d="M536.32,403.28H570.9a0,0,0,0,1,0,0v5.11a3.37,3.37,0,0,1-3.37,3.37H539a2.71,2.71,0,0,1-2.71-2.71v-5.77A0,0,0,0,1,536.32,403.28Z"/><path class="cls-4" d="M268.75,277A70.29,70.29,0,1,0,153.9,331.36a41.49,41.49,0,0,1,15.48,32V364a9.78,9.78,0,0,0,9.76,9.75h38.65a9.78,9.78,0,0,0,9.76-9.75v-.6a40.17,40.17,0,0,1,14.78-31.45A70.1,70.1,0,0,0,268.75,277Z"/><path class="cls-5" d="M172,377.65H222.1a3.37,3.37,0,0,1,3.37,3.37v5.11a0,0,0,0,1,0,0H175.35a3.37,3.37,0,0,1-3.37-3.37v-5.11a0,0,0,0,1,0,0Z"/><path class="cls-5" d="M175.19,390.56H219.1a3.16,3.16,0,0,1,3.16,3.16V399a0,0,0,0,1,0,0H178.35a3.16,3.16,0,0,1-3.16-3.16v-5.32A0,0,0,0,1,175.19,390.56Z"/><path class="cls-5" d="M181.43,403.28H216a0,0,0,0,1,0,0v5.11a3.37,3.37,0,0,1-3.37,3.37h-28.5a2.71,2.71,0,0,1-2.71-2.71v-5.77A0,0,0,0,1,181.43,403.28Z"/><path class="cls-6" d="M495.91,166.18A119.91,119.91,0,0,0,366.85,46.62c-57.41,4.27-104.29,49.76-110.1,107A119.67,119.67,0,0,0,300,258.85c16.44,13.5,26.42,33.29,26.42,54.56v1.09A16.69,16.69,0,0,0,343,331.14H409a16.69,16.69,0,0,0,16.64-16.64v-1c0-20.75,9-40.7,25.22-53.66A119.59,119.59,0,0,0,495.91,166.18Z"/><path class="cls-5" d="M330.83,335.27h85.5a5.75,5.75,0,0,1,5.75,5.75v8.72a0,0,0,0,1,0,0h-85.5a5.75,5.75,0,0,1-5.75-5.75v-8.72A0,0,0,0,1,330.83,335.27Z"/><path class="cls-5" d="M334.11,355.94h79.15a5.54,5.54,0,0,1,5.54,5.54v8.93a0,0,0,0,1,0,0H339.65a5.54,5.54,0,0,1-5.54-5.54v-8.93A0,0,0,0,1,334.11,355.94Z"/><path class="cls-5" d="M336.3,376.61h74.92a5.4,5.4,0,0,1,5.4,5.4v9.08a0,0,0,0,1,0,0H341.69a5.4,5.4,0,0,1-5.4-5.4v-9.08A0,0,0,0,1,336.3,376.61Z"/><path class="cls-5" d="M347,397.29h59a0,0,0,0,1,0,0V406a5.75,5.75,0,0,1-5.75,5.75H351.58a4.62,4.62,0,0,1-4.62-4.62v-9.85A0,0,0,0,1,347,397.29Z"/><path class="cls-5" d="M421.44,218.11a103.48,103.48,0,0,1-91-.06c-14.28-6.88-27.07-17.05-38-29.34l-3.87,10a105.31,105.31,0,0,0,174.69-.21l-3.76-9.69C448.56,201.08,435.74,211.24,421.44,218.11Z"/><path class="cls-5" d="M459.21,46.82a5.54,5.54,0,0,1-9.5-3.54l-1.4-23.11a5.54,5.54,0,0,1,11.06-.68l1.41,23.12A5.51,5.51,0,0,1,459.21,46.82Z"/><path class="cls-5" d="M491.41,59.76a5.55,5.55,0,0,1-7.17-8.44l16.84-15.91a5.54,5.54,0,0,1,7.61,8.06L491.86,59.38Z"/><path class="cls-5" d="M527.34,90.47a5.4,5.4,0,0,1-2.44.42l-23.13-1.28a5.54,5.54,0,1,1,.61-11.07l23.13,1.28a5.54,5.54,0,0,1,1.83,10.65Z"/><path class="cls-5" d="M471,448.58l-24.39-2.12,9.88-49.72A18.29,18.29,0,0,1,478,382.37l4.95,5.62Z"/><path class="cls-5" d="M494.41,373.22l-5.32-.41c-12-1.82-20.95,6.8-22.75,18.61l-4.29,28.21a14.46,14.46,0,0,0-19.48-2.38L415.27,437a13.94,13.94,0,0,0-5.53,8.64h-.07l-7.32,48.09,42.52,3.64-.08-7.62C453.05,484,479.68,464,479.68,464Z"/><path class="cls-7" d="M431.52,450.29l18.68-13.54c13.49-9.4,13.48-15.95,8.47-20.22-3-2.56-7.53-5.12-14.86-1.86"/><path class="cls-7" d="M461.81,421.43s5.05-43.33,12.44-47.38"/><path class="cls-5" d="M283.51,452.67l27-6.8-9.88-49.71a18.28,18.28,0,0,0-21.5-14.37L270.08,385Z"/><path class="cls-5" d="M263.59,372.84l4.77,0c12-1.82,20.95,6.8,22.75,18.61l4.3,28.21a14.46,14.46,0,0,1,19.48-2.38L342.18,437a13.86,13.86,0,0,1,5.53,8.64h.07l7.33,48.09-42.52,3.64.08-7.62C304.4,484,277.78,464,277.78,464Z"/><path class="cls-7" d="M325.94,450.29l-18.68-13.54c-13.5-9.4-13.48-15.95-8.48-20.22,3-2.56,7.53-5.12,14.87-1.86"/><path class="cls-7" d="M295.65,421.43s-5.06-43.33-12.44-47.38"/><polygon class="cls-5" points="355.67 566.41 312.48 566.41 312.48 496.83 355.38 492.74 355.67 566.41"/><polygon class="cls-5" points="401.74 566.9 444.92 566.9 444.92 497.31 402.3 493.42 401.74 566.9"/></g></g></svg>