<?xml version="1.0" encoding="utf-8"?>
<!-- Generator: Adobe Illustrator 25.0.1, SVG Export Plug-In . SVG Version: 6.00 Build 0)  -->
<svg version="1.1" id="Ñëîé_1" xmlns="http://www.w3.org/2000/svg" xmlns:xlink="http://www.w3.org/1999/xlink" x="0px" y="0px"
	 viewBox="0 0 383.8 215.1" style="enable-background:new 0 0 383.8 215.1;" xml:space="preserve">
<style type="text/css">
	.st0{fill:#5A5554;}
	.st1{fill:#009EA8;}
	.st2{fill:#F50005;}
	.st3{fill:#FFFFFF;}
	.st4{fill:#EF8A2B;}
</style>
<g>
	<g>
		<path class="st0" d="M126.2,143.2H106v36.2H85.3v-36.2H25.9l-1.3-6.4c0.8-4.6,2.5-9.8,5.2-15.7c2.6-5.9,5.8-12.1,9.6-18.6
			c3.8-6.4,7.9-12.9,12.4-19.4c4.5-6.5,9-12.6,13.6-18.4c4.5-5.8,8.9-10.9,13-15.5c4.2-4.6,7.8-8.1,10.9-10.6H106v88.2h20.2V143.2z
			 M85.3,126.8V72.6c0-1,0-2.2,0-3.4c0-1.3,0.1-2.6,0.2-4c-0.4,0.4-0.6,0.7-0.8,1.1c-0.1,0.4-0.4,0.8-0.8,1.1
			c-1.1,1.1-2.6,2.7-4.4,5c-1.9,2.2-4,4.9-6.2,7.9c-2.3,3-4.7,6.4-7.3,10.1c-2.6,3.7-5.1,7.6-7.5,11.6c-2.4,4.1-4.7,8.2-6.9,12.4
			c-2.2,4.2-4.1,8.3-5.6,12.4H85.3z"/>
		<path class="st0" d="M240.8,108.8c0,11.4-1.1,21.5-3.3,30.5c-2.2,9-5.4,16.6-9.6,22.8c-4.2,6.2-9.3,11-15.4,14.3
			c-6,3.3-12.9,4.9-20.6,4.9c-7.6,0-14.3-1.5-20.1-4.6c-5.8-3.1-10.6-7.6-14.5-13.5c-3.9-5.9-6.9-13.1-8.8-21.8
			c-2-8.6-3-18.4-3-29.5c0-12,1-22.7,3-32c2-9.3,5-17.1,9.1-23.5c4.1-6.4,9.2-11.2,15.4-14.5c6.1-3.3,13.3-4.9,21.6-4.9
			C225.4,37.2,240.8,61.1,240.8,108.8z M219.5,110.3c0-18.9-2.2-33-6.5-42.4c-4.3-9.4-10.7-14.1-19.1-14.1c-9,0-15.7,4.8-20.3,14.3
			c-4.6,9.5-6.8,23.9-6.8,43.2c0,17.8,2.2,31.1,6.7,39.9c4.5,8.8,11.1,13.2,19.7,13.2c8.6,0,15.1-4.5,19.6-13.5
			C217.3,142.2,219.5,128.6,219.5,110.3z"/>
		<path class="st0" d="M361.7,143.2h-20.2v36.2h-20.7v-36.2h-59.4l-1.3-6.4c0.8-4.6,2.5-9.8,5.2-15.7c2.6-5.9,5.8-12.1,9.6-18.6
			c3.8-6.4,7.9-12.9,12.4-19.4c4.5-6.5,9-12.6,13.6-18.4c4.5-5.8,8.9-10.9,13-15.5c4.2-4.6,7.8-8.1,10.9-10.6h16.7v88.2h20.2V143.2z
			 M320.8,126.8V72.6c0-1,0-2.2,0-3.4c0-1.3,0.1-2.6,0.2-4c-0.4,0.4-0.6,0.7-0.8,1.1c-0.1,0.4-0.4,0.8-0.8,1.1
			c-1.1,1.1-2.6,2.7-4.4,5c-1.9,2.2-4,4.9-6.2,7.9c-2.3,3-4.7,6.4-7.3,10.1c-2.6,3.7-5.1,7.6-7.5,11.6c-2.4,4.1-4.7,8.2-6.9,12.4
			c-2.2,4.2-4.1,8.3-5.6,12.4H320.8z"/>
	</g>
	<g>
		<g>
			<path class="st1" d="M120.5,135.9h-20.2v36.2H79.6v-36.2H20.2l-1.3-6.4c0.8-4.6,2.5-9.8,5.2-15.7c2.6-5.9,5.8-12.1,9.6-18.6
				c3.8-6.4,7.9-12.9,12.4-19.4c4.5-6.5,9-12.6,13.6-18.4c4.5-5.8,8.9-10.9,13-15.5c4.2-4.6,7.8-8.1,10.9-10.6h16.7v88.2h20.2V135.9
				z M79.6,119.5V65.2c0-1,0-2.2,0-3.4c0-1.3,0.1-2.6,0.2-4c-0.4,0.4-0.6,0.7-0.8,1.1c-0.1,0.4-0.4,0.8-0.8,1.1
				c-1.1,1.1-2.6,2.7-4.4,5c-1.9,2.2-4,4.9-6.2,7.9c-2.3,3-4.7,6.4-7.3,10.1c-2.6,3.7-5.1,7.6-7.5,11.6c-2.4,4.1-4.7,8.2-6.9,12.4
				c-2.2,4.2-4.1,8.3-5.6,12.4H79.6z"/>
		</g>
		<g>
			<path class="st1" d="M235.1,101.5c0,11.4-1.1,21.5-3.3,30.5c-2.2,9-5.4,16.6-9.6,22.8c-4.2,6.2-9.3,11-15.4,14.3
				c-6,3.3-12.9,4.9-20.6,4.9c-7.6,0-14.3-1.5-20.1-4.6c-5.8-3.1-10.6-7.6-14.5-13.5c-3.9-5.9-6.9-13.1-8.8-21.8
				c-2-8.6-3-18.4-3-29.5c0-12,1-22.7,3-32c2-9.3,5-17.1,9.1-23.5c4.1-6.4,9.2-11.2,15.4-14.5c6.1-3.3,13.3-4.9,21.6-4.9
				C219.7,29.9,235.1,53.7,235.1,101.5z M213.8,103c0-18.9-2.2-33-6.5-42.4c-4.3-9.4-10.7-14.1-19.1-14.1c-9,0-15.7,4.8-20.3,14.3
				c-4.6,9.5-6.8,23.9-6.8,43.2c0,17.8,2.2,31.1,6.7,39.9c4.5,8.8,11.1,13.2,19.7,13.2c8.6,0,15.1-4.5,19.6-13.5
				C211.6,134.8,213.8,121.2,213.8,103z"/>
		</g>
		<g>
			<path class="st1" d="M356,135.9h-20.2v36.2h-20.7v-36.2h-59.4l-1.3-6.4c0.8-4.6,2.5-9.8,5.2-15.7c2.6-5.9,5.8-12.1,9.6-18.6
				c3.8-6.4,7.9-12.9,12.4-19.4c4.5-6.5,9-12.6,13.6-18.4c4.5-5.8,8.9-10.9,13-15.5c4.2-4.6,7.8-8.1,10.9-10.6h16.7v88.2H356V135.9z
				 M315.1,119.5V65.2c0-1,0-2.2,0-3.4c0-1.3,0.1-2.6,0.2-4c-0.4,0.4-0.6,0.7-0.8,1.1c-0.1,0.4-0.4,0.8-0.8,1.1
				c-1.1,1.1-2.6,2.7-4.4,5c-1.9,2.2-4,4.9-6.2,7.9c-2.3,3-4.7,6.4-7.3,10.1c-2.6,3.7-5.1,7.6-7.5,11.6c-2.4,4.1-4.7,8.2-6.9,12.4
				c-2.2,4.2-4.1,8.3-5.6,12.4H315.1z"/>
		</g>
	</g>
</g>
</svg>
