<?xml version="1.0" encoding="utf-8"?>
<!-- Generator: Adobe Illustrator 25.0.1, SVG Export Plug-In . SVG Version: 6.00 Build 0)  -->
<svg version="1.1" id="Ñëîé_1" xmlns="http://www.w3.org/2000/svg" xmlns:xlink="http://www.w3.org/1999/xlink" x="0px" y="0px"
	 viewBox="0 0 1386.4 250.9" style="enable-background:new 0 0 1386.4 250.9;" xml:space="preserve">
<style type="text/css">
	.st0{fill:#5A5554;}
	.st1{fill:#009EA8;}
	.st2{fill:#F50005;}
	.st3{fill:#FFFFFF;}
	.st4{fill:#EF8A2B;}
</style>
<g>
	<rect x="16" y="98.7" class="st2" width="1118.5" height="51.2"/>
</g>
<g>
	<path class="st2" d="M1221.1,219.4h-9.8c-52.5,0-95.1-42.6-95.1-95.1v0c0-52.5,42.6-95.1,95.1-95.1h9.8V219.4z"/>
</g>
<g>
	<path class="st2" d="M1345.4,80.4h-90.2c-10.7,0-19.5-8.8-19.5-19.5l0,0c0-10.7,8.8-19.5,19.5-19.5h90.2c10.7,0,19.5,8.8,19.5,19.5
		l0,0C1364.9,71.7,1356.2,80.4,1345.4,80.4z"/>
</g>
<g>
	<path class="st2" d="M1345.4,202.4h-90.2c-10.7,0-19.5-8.8-19.5-19.5l0,0c0-10.7,8.8-19.5,19.5-19.5h90.2
		c10.7,0,19.5,8.8,19.5,19.5l0,0C1364.9,193.6,1356.2,202.4,1345.4,202.4z"/>
</g>
<polygon class="st3" points="597.4,92.8 566.3,115.1 584.1,123.8 560.3,132.8 584.1,140.7 551,154.8 830.5,154.8 817.1,142.7 
	830.5,130.8 817.1,123.8 830.5,111.2 801.8,103.3 830.5,92.8 "/>
<polygon class="st4" points="592.8,80.4 575.2,60.9 584.1,50.5 "/>
<polygon class="st4" points="652.3,109 669.9,50.5 695.2,65.5 "/>
<polygon class="st4" points="632.8,143.2 662.5,190.3 647.7,202.4 "/>
<polygon class="st4" points="777.7,100.9 727,70.6 741.9,52.1 "/>
<polygon class="st4" points="715.1,204.7 763.6,151.4 737.9,208.9 "/>
<polygon class="st4" points="755.8,123 739.7,149.9 731,135.2 "/>
<polygon class="st4" points="692.5,171.8 667.3,143.6 701.7,155.9 "/>
<polygon class="st4" points="801.8,143.2 794.3,172.8 809.3,172.8 "/>
<polygon class="st4" points="592.8,149.9 617.4,182.9 592.8,184.7 "/>
<polygon class="st4" points="608.3,104.4 625.3,109 608.3,113.6 603.7,130.7 599.1,113.6 582,109 599.1,104.4 603.7,87.4 "/>
<polygon class="st4" points="809.5,196 821.6,199.2 809.5,202.5 806.2,214.7 803,202.5 790.8,199.2 803,196 806.2,183.8 "/>
<polygon class="st4" points="719.9,89.5 732.1,92.8 719.9,96 716.7,108.2 713.4,96 701.3,92.8 713.4,89.5 716.7,77.3 "/>
</svg>
