<svg xmlns="http://www.w3.org/2000/svg" xmlns:xlink="http://www.w3.org/1999/xlink" viewBox="0 0 161.23 209.61"><defs><style>.cls-1{fill:none;}.cls-2{clip-path:url(#clip-path);}.cls-3{fill:#fff;}.cls-4{fill:#4cbac1;}.cls-5{fill:#009ca6;}.cls-6{fill:#99d7db;}.cls-7{fill:#d2010d;}</style><clipPath id="clip-path"><circle class="cls-1" cx="80.62" cy="128.5" r="80.62"/></clipPath></defs><title>Implementaciones</title><g id="Capa_2" data-name="Capa 2"><g id="Capa_1-2" data-name="Capa 1"><g class="cls-2"><circle class="cls-3" cx="80.62" cy="128.5" r="80.62"/><rect class="cls-4" x="4.4" y="132.32" width="124.51" height="77.29"/><polygon class="cls-5" points="128.91 209.61 154.57 193.23 154.57 120.31 128.91 132.32 128.91 209.61"/><polygon class="cls-6" points="30.06 120.31 154.57 120.31 128.91 132.32 4.4 132.32 30.06 120.31"/></g><path class="cls-7" d="M83.42,2.44,97.93,31.85a4.4,4.4,0,0,0,3.3,2.4L133.68,39a4.39,4.39,0,0,1,2.43,7.48L112.63,69.33a4.38,4.38,0,0,0-1.26,3.88l5.54,32.33a4.38,4.38,0,0,1-6.36,4.62l-29-15.26a4.39,4.39,0,0,0-4.08,0l-29,15.26a4.38,4.38,0,0,1-6.36-4.62L47.6,73.21a4.41,4.41,0,0,0-1.26-3.88L22.86,46.44A4.38,4.38,0,0,1,25.29,39l32.45-4.71a4.4,4.4,0,0,0,3.3-2.4L75.55,2.44A4.4,4.4,0,0,1,83.42,2.44Z"/><path class="cls-3" d="M94.3,62.18a33.69,33.69,0,0,1-29.62,0,39.61,39.61,0,0,1-12.35-9.55l-1.26,3.24a34.25,34.25,0,0,0,56.83-.07l-1.22-3.15A40,40,0,0,1,94.3,62.18Z"/></g></g></svg>